<svg width="14" height="14" viewBox="0 0 16 16" xmlns="http://www.w3.org/2000/svg">
    <path d="M14.3802 3.39286C14.5503 3.55952 14.6962 3.78571 14.8177 4.07143C14.9392 4.35714 15 4.61905 15 4.85714V15.1429C15 15.381 14.9149 15.5833 14.7448 15.75C14.5747 15.9167 14.3681 16 14.125 16H1.875C1.63194 16 1.42535 15.9167 1.25521 15.75C1.08507 15.5833 1 15.381 1 15.1429V0.857143C1 0.619048 1.08507 0.416667 1.25521 0.25C1.42535 0.0833333 1.63194 0 1.875 0H10.0417C10.2847 0 10.5521 0.0595238 10.8437 0.178571C11.1354 0.297619 11.3663 0.440476 11.5365 0.607143L14.3802 3.39286ZM10.3333 1.21429V4.57143H13.7604C13.6997 4.39881 13.6328 4.27679 13.5599 4.20536L10.707 1.41071C10.6341 1.33929 10.5095 1.27381 10.3333 1.21429ZM13.8333 14.8571V5.71429H10.0417C9.79861 5.71429 9.59201 5.63095 9.42187 5.46429C9.25174 5.29762 9.16667 5.09524 9.16667 4.85714V1.14286H2.16667V14.8571H13.8333ZM4.5 7.14286C4.5 7.05952 4.52734 6.99107 4.58203 6.9375C4.63672 6.88393 4.7066 6.85714 4.79167 6.85714H11.2083C11.2934 6.85714 11.3633 6.88393 11.418 6.9375C11.4727 6.99107 11.5 7.05952 11.5 7.14286V7.71429C11.5 7.79762 11.4727 7.86607 11.418 7.91964C11.3633 7.97321 11.2934 8 11.2083 8H4.79167C4.7066 8 4.63672 7.97321 4.58203 7.91964C4.52734 7.86607 4.5 7.79762 4.5 7.71429V7.14286ZM11.2083 9.14286C11.2934 9.14286 11.3633 9.16964 11.418 9.22321C11.4727 9.27679 11.5 9.34524 11.5 9.42857V10C11.5 10.0833 11.4727 10.1518 11.418 10.2054C11.3633 10.2589 11.2934 10.2857 11.2083 10.2857H4.79167C4.7066 10.2857 4.63672 10.2589 4.58203 10.2054C4.52734 10.1518 4.5 10.0833 4.5 10V9.42857C4.5 9.34524 4.52734 9.27679 4.58203 9.22321C4.63672 9.16964 4.7066 9.14286 4.79167 9.14286H11.2083ZM11.2083 11.4286C11.2934 11.4286 11.3633 11.4554 11.418 11.5089C11.4727 11.5625 11.5 11.631 11.5 11.7143V12.2857C11.5 12.369 11.4727 12.4375 11.418 12.4911C11.3633 12.5446 11.2934 12.5714 11.2083 12.5714H4.79167C4.7066 12.5714 4.63672 12.5446 4.58203 12.4911C4.52734 12.4375 4.5 12.369 4.5 12.2857V11.7143C4.5 11.631 4.52734 11.5625 4.58203 11.5089C4.63672 11.4554 4.7066 11.4286 4.79167 11.4286H11.2083Z"/>
</svg>
