<svg width="14" height="14" viewBox="0 0 16 16" xmlns="http://www.w3.org/2000/svg">
    <path d="M16 5.77273V12.7727C16 13.3826 15.7885 13.9062 15.3654 14.3437C14.9423 14.7812 14.4359 15 13.8462 15H2.15385C1.5641 15 1.05769 14.7812 0.634615 14.3437C0.211538 13.9062 0 13.3826 0 12.7727V3.22727C0 2.61742 0.211538 2.09375 0.634615 1.65625C1.05769 1.21875 1.5641 1 2.15385 1H5.23077C5.82051 1 6.32692 1.21875 6.75 1.65625C7.17308 2.09375 7.38462 2.61742 7.38462 3.22727V3.54545H13.8462C14.4359 3.54545 14.9423 3.7642 15.3654 4.2017C15.7885 4.6392 16 5.16288 16 5.77273Z"/>
</svg>
